<svg width="122" height="80" viewBox="0 0 122 80" fill="none" xmlns="http://www.w3.org/2000/svg">
<path fill-rule="evenodd" clip-rule="evenodd" d="M85.762 9H113V71H99.76V36.4401H86.26L60.8334 62.7049L35.5 36.4401H22V71H9V9H72.262V24.794C72.262 26.342 71.974 27.728 71.398 28.952C70.858 30.176 69.814 31.13 68.266 31.814C66.718 32.498 64.45 32.84 61.462 32.84C57.934 32.84 55.252 32.372 53.416 31.436C51.616 30.5 50.464 28.916 49.96 26.684H37C37.036 29.78 37.756 32.39 39.16 34.514C40.564 36.602 42.436 38.276 44.776 39.536C47.116 40.796 49.726 41.714 52.606 42.29C55.522 42.83 58.474 43.1 61.462 43.1C65.746 43.1 69.418 42.632 72.478 41.696C75.574 40.724 78.094 39.428 80.038 37.808C82.018 36.188 83.458 34.406 84.358 32.462C85.294 30.482 85.762 28.466 85.762 26.414V9ZM35.5 71H52.7799L35.5 53.371V71ZM68.9801 71H86.26V53.2826L68.9801 71ZM0 80V0H122V80H0Z" fill="#171717"/>
</svg>
