<svg fill="none" height="20" viewBox="0 0 44 20" width="44" xmlns="http://www.w3.org/2000/svg"><path d="m0 19.1931c.05714-.218.102105-.4393.134668-.6627.040935-.2634.077683-.5906.110245-.9816.032562-.3911.056985-.8563.073266-1.3957s.024421-1.1702.024421-1.8923v-8.29627c0-.72211-.00814-1.35287-.024421-1.89228s-.040704-1.0068-.073266-1.40217c-.032562-.39489-.06931-.72404-.110245-.98747-.032563-.22339-.077528-.44465-.134668-.66265v-.050755h2.93058v.050755c-.05713.21832-.10371.43949-.13955.66265-.04651.26343-.08326.59258-.11024.98747s-.0514.86228-.07327 1.40217c-.02047.53941-.0307 1.17017-.0307 1.89228v8.29627c0 .7221.01023 1.3529.0307 1.8923s.04489 1.0046.07327 1.3957c.02884.391.06559.7182.11024.9816.03584.2232.08242.4443.13955.6627v.0507h-2.93058zm11.6526-4.9301c0 .7221.0102 1.3529.0307 1.8923.0204.5394.0449 1.0046.0732 1.3956.0289.391.0656.7183.1103.9817.0358.2232.0824.4443.1395.6627v.0485h-2.94382v-.0507c.05714-.2184.10372-.4395.13955-.6627.04652-.2634.08327-.5906.11025-.9816.02698-.3911.0514-.8541.07327-1.3892.02046-.535.0307-1.168.0307-1.8988v-8.29627c0-.72211-.01024-1.35287-.0307-1.89228-.02047-.53941-.04489-1.00462-.07327-1.39565-.02884-.39102-.06559-.72017-.11025-.98746-.03546-.2254-.08204-.44875-.13955-.66918v-.050755l.51495.050755c.15537.01691.32911.02755.52127.0319.1921.00435.3905.00652.5951.00652.4334-.0102.8656-.05065 1.2937-.121076.6894-.089741 1.3839-.130195 2.0786-.121077.7378-.007279 1.4722.104496 2.177.331333.6336.20255 1.223.53157 1.7353.96861.4903.42399.8824.95726 1.1472 1.56022.2829.6593.4234 1.37498.4116 2.09674.005.57567-.0714 1.14898-.2267 1.7016-.143.50415-.358.98315-.6378 1.42102-.2737.42464-.6064.80481-.9873 1.12815-.3924.332-.8255.6082-1.2881.8214l4.3052 6.2829c.2126.3142.411.5861.5952.8157.1648.2077.3409.4055.5275.5923.1495.1507.3115.2873.4842.4082.1491.103.3099.1865.4787.2487v.0507h-3.5446c-.0477-.226-.1284-.4431-.2394-.6438-.14-.2766-.2978-.543-.4723-.7975l-4.3422-6.3591c-.1861.017-.3742.0319-.5645.045-.1902.013-.3823.0193-.5763.0188-.2289 0-.4598-.0084-.6929-.0253-.2364-.0174-.4719-.0472-.7054-.0892zm0-3.8614c.2224.0511.4478.0872.6747.108.2289.0213.4496.0319.6622.0319.572.0061 1.1407-.092 1.6802-.29.4912-.18.9344-.47807 1.2936-.86999.3725-.41997.6549-.91746.8283-1.45945.2078-.65976.3074-1.35117.2944-2.04526.0062-.58502-.0642-1.1682-.2093-1.7335-.1197-.47849-.3301-.92735-.6189-1.32024-.2757-.36246-.631-.65088-1.0362-.84102-.4599-.20872-.958-.3109-1.4597-.29943-.4514-.00808-.9027.02175-1.3495.08918-.2586.03969-.5131.10375-.7605.1914zm14.8727 8.7915c.0571-.218.1021-.4393.1346-.6627.041-.2634.0777-.5906.1103-.9816.0326-.3911.057-.8563.0733-1.3957.0162-.5394.0244-1.1702.0244-1.8923v-8.29627c0-.72211-.0082-1.35287-.0244-1.89228-.0163-.53941-.0405-1.0068-.0726-1.40217-.0326-.39489-.0693-.72404-.1103-.98747-.0325-.22339-.0775-.44465-.1346-.66265v-.050755h2.9306v.050755c-.0572.21832-.1038.43949-.1396.66265-.0465.26343-.0833.59258-.1102.98747-.027.39489-.0514.86228-.0733 1.40217-.0205.53941-.0307 1.17017-.0307 1.89228v8.29627c0 .7221.0102 1.3529.0307 1.8923s.0449 1.0046.0733 1.3957c.0288.391.0656.7182.1102.9816.0358.2232.0824.4443.1396.6627v.0507h-2.9306zm16.3966-15.3195h-.27c-.0822-.23139-.1869-.45343-.3126-.66266-.1538-.25949-.3441-.4936-.5645-.69456-.2511-.22828-.5372-.41133-.8464-.54159-.3727-.15271-.771-.22665-1.1715-.2175-.3641-.0066-.7261.05834-1.0669.1914-.2945.11625-.5605.299-.7787.53506-.2113.23404-.3723.51206-.4724.81564-.1098.33633-.1638.6896-.1598 1.04474.0027.6212.1749 1.22887.4968 1.75235.3589.59331.7761 1.14632 1.2448 1.65013.4987.54375 1.0383 1.08751 1.6188 1.63127.57.53279 1.1105 1.09872 1.6188 1.69512.4822.5616.9 1.1796 1.2448 1.8415.3299.6361.5007 1.3481.4968 2.0706-.0033.5667-.0976 1.1288-.2791 1.6632-.1829.5543-.473 1.0638-.8526 1.4971-.4139.465-.9185.8331-1.48 1.0796-.6842.2918-1.4194.4328-2.1588.414-.4468.0018-.8926-.0431-1.3307-.1342-.3952-.0826-.7844-.194-1.1645-.3335-.328-.1193-.6476-.262-.9566-.427-.2385-.1263-.4699-.2667-.6929-.4205l.2791-2.8167h.3063c.0907.4012.2397.7858.4417 1.1405.2017.3575.4562.68.7543.9555.3031.2792.6494.5032 1.0243.6627.4015.1709.8318.2569 1.2657.253.3825.0063.7628-.0606 1.122-.1972.3164-.1221.6062-.3084.8527-.5481.2374-.2342.4235-.5188.5456-.8345.1291-.3371.1934-.6972.1891-1.0599.0058-.5096-.0892-1.015-.2791-1.4849-.1926-.4625-.4419-.8972-.7417-1.2934-.3186-.4215-.6671-.8178-1.0425-1.1854-.3884-.3823-.787-.7668-1.1959-1.1535-.4089-.3866-.8076-.78395-1.196-1.19189-.384-.40205-.7329-.83877-1.0424-1.30502-.3072-.46275-.5571-.9638-.7439-1.49135-.1921-.56234-.2866-1.15567-.2791-1.75235-.0087-.62578.1192-1.24548.374-1.81253.2392-.52512.577-.99521.9936-1.38259.4115-.38142.8878-.67967 1.4046-.879441.5174-.202807 1.0659-.306469 1.6188-.305955.3784-.002711.7561.031516 1.1283.102227.3133.060061.6226.140945.9259.242154.274.093285.5131.186815.7173.280575l.5031.22911z" fill="#141414"/></svg>