<svg fill="none" height="19" viewBox="0 0 92 19" width="92" xmlns="http://www.w3.org/2000/svg"><g fill="#141414"><path d="m27.1432 18.3069c-.569.0256-1.1365-.0769-1.6605-.3001-.5241-.2231-.9913-.5611-1.3672-.9891-.8131-1.0636-1.2114-2.3868-1.1203-3.7226.0082-1.2746.2127-2.5404.6063-3.75283.3607-1.1999 1.0055-2.29511 1.8797-3.19271.4131-.42194.9087-.7542 1.456-.97601s1.1344-.32843 1.7247-.31318c.74-.02407 1.475.12861 2.1442.4454.5873.30525 1.0853.7577 1.4453 1.3131h.1442l.7466-1.47007h2.7952l-.5578 3.08435-.3856 2.09635c-.4978 2.7622-.7466 4.2399-.7466 4.4333-.0048.09.0112.18.0467.2629s.0896.1565.158.2152c.1393.1134.3145.1734.4941.1689h.6987l-.4095 2.3107c-.6222.2725-1.297.4042-1.976.3856-.5912.0361-1.1761-.139-1.6502-.494-.2008-.1815-.3562-.4075-.4539-.6598-.0977-.2524-.1349-.5242-.1086-.7935h-.1442c-.4296.6091-1.0001 1.1052-1.6629 1.4461-.6483.3334-1.3674.5056-2.0964.502zm1.2749-2.8684c.3567.0082.7105-.0652 1.0345-.2146.3239-.1494.6095-.3709.8348-.6475.5029-.6033.8652-1.311 1.0605-2.0717.2067-.7309.316-1.4858.3251-2.2453 0-1.62227-.6746-2.4334-2.0239-2.4334-.3672-.01342-.7325.05878-1.0671.2109-.3345.15212-.629.37998-.8603.66556-.4934.60994-.8397 1.32534-1.0119 2.09074-.1869.7562-.284 1.5318-.2892 2.3107 0 1.5596.6666 2.3394 1.9999 2.3394zm11.7844-14.836938h3.3011l-3.0604 17.420038h-3.3035zm6.6978 0h3.3011l-3.0597 17.420038h-3.301zm6.6261 0h3.301l-.5577 3.107458h-3.2971zm-.7466 4.746438h3.301l-2.2413 12.6736h-3.3011zm9.857 12.9589c-1.4145.0796-2.8235-.2331-4.0716-.9036-.4419-.2423-.8098-.6-1.0643-1.035-.2546-.435-.3863-.931-.381-1.435-.0058-.3212.0516-.6403.1689-.9394h3.2046c-.0486.1144-.0733.2375-.0725.3617-.0081.2228.0507.4429.1689.6319.1181.1891.2902.3384.4941.4287.5143.2414 1.0782.3582 1.6461.341.6243.0143 1.2458-.0878 1.8326-.3012.2208-.0583.4162-.188.5557-.3688.1395-.1809.2153-.4028.2156-.6312-.0008-.1977-.0624-.3905-.1764-.5521-.1141-.1616-.275-.2843-.461-.3514-.6597-.2816-1.3404-.5112-2.0358-.6868-.752-.1796-1.4922-.405-2.2167-.6749-.5688-.2186-1.0799-.5648-1.4939-1.0119-.4297-.4824-.6543-1.1132-.6263-1.75853-.0273-.63355.1091-1.26345.396-1.82896.287-.5655.7148-1.04754 1.2422-1.39961 1.2469-.79859 2.7093-1.19417 4.1887-1.13303 1.2982-.05326 2.5895.21583 3.7584.78324.423.18198.7844.48227 1.0408.86477.2565.38249.3969.83091.4046 1.29133-.0011.36012-.0581.71788-.1689 1.06052h-3.2023l.0239-.23904c.0073-.18406-.0374-.36645-.129-.52626-.0916-.15982-.2264-.29058-.3889-.37729-.4439-.22313-.9381-.32693-1.4342-.30119-.5814-.02363-1.161.07913-1.6988.30119-.1806.0608-.3383.1752-.4522.32795s-.1785.33659-.1852.527c.0079.18423.0723.36158.1843.50807s.2663.25506.442.31102c.6218.25589 1.2674.44962 1.9274.57842.772.1668 1.5324.3835 2.2764.6486.59.2168 1.1218.5673 1.5537 1.0239.4517.505.6857 1.1679.651 1.8446.0534.6896-.0794 1.3809-.3845 2.0017-.3052.6208-.7714 1.1482-1.3501 1.5272-1.327.7738-2.8474 1.1527-4.3823 1.0924zm11.5653 0c-.8404.0818-1.6794-.1691-2.337-.6988-.2351-.2408-.4187-.527-.5395-.8411-.1209-.3141-.1764-.6496-.1632-.9859.0622-.7442.1667-1.4843.3131-2.2167l.9617-5.51769h-1.5139l.4781-2.69871h1.5179l1.2286-3.5656h2.7226l-.6501 3.5656h2.1927l-.4781 2.69871h-2.1935l-1.0366 5.87789c-.0684.326-.1166.656-.1442.988-.0057.0983.0121.1965.0519.2865s.1003.1694.1767.2314c.1945.1329.428.1966.663.1809h1.1561l-.4096 2.3107c-.3193.1091-.6453.1977-.976.2653-.3362.0752-.6794.1153-1.0239.1195zm10.4809 0c-1.0163.0178-2.0215-.2139-2.9274-.6749-.8396-.4294-1.548-1.0771-2.0509-1.8748-.51-.8167-.7813-1.7598-.7832-2.7226-.007-.7025.0495-1.4041.1689-2.0964.2037-1.6688.9885-3.21265 2.2166-4.36076 1.3568-1.07943 3.0643-1.61994 4.7951-1.51787 1.0278-.01845 2.0447.21315 2.9632.67487.844.42861 1.5559 1.07823 2.0597 1.87962.51.81667.7813 1.75977.7832 2.72264.007.7024-.0495 1.404-.1689 2.0963-.2045 1.671-.994 3.2156-2.2286 4.36-1.3706 1.0792-3.0895 1.6179-4.8309 1.5139zm.239-2.6987c.4657.0284.9322-.0405 1.3698-.2022s.8367-.4128 1.172-.7372c.6817-.8161 1.0829-1.8299 1.1442-2.8915.0663-.4629.0985-.93.0964-1.3976.0118-.3561-.0495-.71085-.1801-1.04235s-.3277-.63272-.5793-.88508c-.5603-.49148-1.2917-.74252-2.0357-.69878-.4657-.0284-.9322.04045-1.3698.20219-.4376.16173-.8367.4128-1.172.73722-.6817.81613-1.0829 1.8299-1.1442 2.8915-.0663.4629-.0985.93-.0964 1.3976-.0118.3561.0495.7108.1801 1.0423s.3277.6328.5793.8851c.5595.4927 1.2906.7452 2.0349.7028z"/><path d="m12.9752 18.316c-1.4214.053-2.8347-.2364-4.12092-.8438-1.04745-.5395-1.86528-1.4385-2.3035-2.5322l3.33614-1.4342c.47008 1.2207 1.55058 1.8398 3.21258 1.8398 1.1094.037 2.2014-.2821 3.1163-.9107.8385-.604 1.4057-1.5135 1.5792-2.5322h3.47c-.1904 1.3003-.7218 2.527-1.5402 3.5552-.781.9493-1.7882 1.6869-2.929 2.145-1.2155.4822-2.5129.7244-3.8206.7131zm9.0332-10.6753h-3.5855c.0466-.23781.0703-.47955.0709-.72189.0236-.38605-.0438-.77226-.1967-1.12751-.1529-.35526-.3871-.66964-.6838-.91783-.6791-.49407-1.5069-.74068-2.3457-.69878-1.2222-.04477-2.4166.37128-3.3465 1.16569l-3.18713-1.46767c.24945-.26978.51557-.52365.79678-.76013.76865-.62708 1.64735-1.1056 2.59115-1.41111 1.0546-.33873 2.1568-.50527 3.2644-.49321 1.7258-.08017 3.4343.37422 4.8923 1.30115.6063.42532 1.0945.99776 1.4188 1.66356s.4741 1.40311.4353 2.14268c-.0078.44393-.0493.88663-.1243 1.32425z"/><path d="m.535439 12.9202 10.654561-3.80144-9.28887-3.80145.53543-3.05169 11.77884 5.24683-.6159 3.39985-13.5995 5.2747z" opacity=".3"/><path d="m.535439 12.9147 10.654561-3.80142 2.5346 1.03982-.1251.7537-13.5995 5.274z" opacity=".5"/></g></svg>