<svg fill="none" height="23" viewBox="0 0 129 23" width="129" xmlns="http://www.w3.org/2000/svg"><g fill="#141414"><path d="m42.1484 17.3425v-13.95969h2.5527v5.80322h6.2619v-5.80322h2.5526v13.95969h-2.5526v-6.0825h-6.2619v6.0825z"/><path d="m57.4038 21.7319 2.2934-5.0455h-.5983l-3.8489-9.23328h2.772l2.772 6.95988 2.8917-6.95988h2.7121l-6.2818 14.27878z"/><path d="m68.0684 21.729v-14.27875h2.2735l.2791 1.41588c.3191-.4387.7379-.82426 1.2564-1.15663.5318-.33237 1.2165-.49856 2.0541-.49856.9306 0 1.7615.22602 2.4928.67804.7312.45203 1.3096 1.07027 1.7349 1.85461.4255.78441.6382 1.67521.6382 2.67231s-.2127 1.8879-.6382 2.6723c-.4253.7711-1.0037 1.3827-1.7349 1.8347-.7313.4387-1.5622.6581-2.4928.6581-.7445 0-1.396-.1396-1.9544-.4188s-1.0104-.6714-1.3561-1.1766v5.7434zm5.3247-6.3816c.8109 0 1.4823-.2725 2.0141-.8176s.7978-1.2497.7978-2.1139c0-.8641-.266-1.5755-.7978-2.1339-.5318-.55835-1.2032-.83754-2.0141-.83754-.8243 0-1.5024.27919-2.0342.83754-.5185.5452-.7777 1.2498-.7777 2.1139 0 .8642.2592 1.5755.7777 2.1339.5318.5451 1.2099.8176 2.0342.8176z"/><path d="m85.883 17.581c-.9971 0-1.8812-.2127-2.6523-.6382-.7712-.4254-1.3761-1.0236-1.8148-1.7948-.4387-.7711-.6581-1.6618-.6581-2.6723 0-1.0236.2127-1.9344.6382-2.73211.4387-.79769 1.037-1.41588 1.7948-1.85461.7711-.45202 1.6752-.67804 2.7122-.67804.97 0 1.8276.21272 2.5724.63816s1.3231 1.01044 1.735 1.7549c.4257.7313.6381 1.5489.6381 2.4529 0 .1463-.0069.2992-.0199.4587 0 .1595-.007.3257-.02.4986h-7.5181c.0532.7711.3191 1.376.7977 1.8147.4919.4387 1.0835.6581 1.7749.6581.5185 0 .9501-.113 1.2961-.339.3589-.2393.6251-.545.7977-.9174h2.5925c-.1864.6249-.4986 1.1966-.9373 1.7151-.4257.5052-.9573.9041-1.5954 1.1965-.6252.2926-1.336.4388-2.1337.4388zm.02-8.29608c-.6249 0-1.1766.17948-1.6553.53844-.4786.34574-.7844.87744-.9173 1.59544h4.9256c-.0399-.6515-.2792-1.17-.7179-1.55555-.4388-.3855-.9837-.57833-1.6351-.57833z"/><path d="m92.9961 17.3417v-9.89145h2.2734l.2393 1.85461c.359-.63812.8446-1.14334 1.4558-1.51559.6252-.38556 1.3561-.57833 2.1937-.57833v2.69219h-.7179c-.5584 0-1.057.08645-1.4957.25927-.4387.1729-.7838.472-1.037.8974-.2393.4255-.359 1.0171-.359 1.7749v4.507z"/><path d="m102.279 5.91591c-.465 0-.851-.13959-1.157-.41879-.292-.27919-.438-.63151-.438-1.05695s.146-.7711.438-1.037c.306-.2792.692-.41879 1.157-.41879.466 0 .845.13959 1.137.41879.306.2659.458.61156.458 1.037s-.152.77776-.458 1.05695c-.292.2792-.671.41879-1.137.41879zm-1.276 11.42699v-9.89142h2.552v9.89142z"/><path d="m110.966 17.581c-.957 0-1.821-.2194-2.593-.6581-.758-.4388-1.362-1.0436-1.815-1.8148-.438-.7843-.658-1.6884-.658-2.7122 0-1.0236.227-1.921.678-2.69219.453-.78435 1.057-1.39594 1.815-1.83467.772-.43874 1.635-.6581 2.593-.6581.944 0 1.795.21936 2.552.6581.772.43873 1.376 1.05032 1.815 1.83467.453.77119.678 1.66859.678 2.69219 0 1.0238-.225 1.9279-.678 2.7122-.439.7712-1.043 1.376-1.815 1.8148-.77.4387-1.628.6581-2.572.6581zm0-2.2136c.665 0 1.243-.2459 1.735-.7379.492-.5052.738-1.2497.738-2.2336 0-.9837-.246-1.7216-.738-2.2136-.492-.50512-1.063-.75779-1.715-.75779-.678 0-1.263.25267-1.755.75779-.479.492-.718 1.2299-.718 2.2136 0 .9839.239 1.7284.718 2.2336.492.492 1.071.7379 1.735.7379z"/><path d="m118.312 17.3417v-9.89145h2.254l.199 1.67513c.307-.58495.745-1.05027 1.317-1.39594.585-.34567 1.27-.5185 2.054-.5185 1.223 0 2.173.38555 2.851 1.15666.679.77113 1.018 1.9012 1.018 3.3902v5.5839h-2.553v-5.3446c0-.8509-.173-1.5023-.519-1.9544-.345-.45197-.883-.67801-1.615-.67801-.718 0-1.309.25266-1.775.75781-.452.5052-.678 1.2099-.678 2.1139v5.1053z"/><g clip-rule="evenodd" fill-rule="evenodd"><path d="m17.1016 20.9207c3.2617-1.9752 5.4416-5.5575 5.4416-9.6489 0-4.09141-2.1799-7.67371-5.4416-9.6488 1.7011-1.030076 3.6964-1.623 5.8302-1.623 6.2252 0 11.2718 5.04656 11.2718 11.2718 0 6.2253-5.0466 11.2718-11.2718 11.2718-2.1338 0-4.1291-.5929-5.8302-1.6229z" opacity=".2"/><path d="m17.102 1.623c-3.2616 1.97509-5.4415 5.55739-5.4415 9.6488 0 4.0914 2.1799 7.6737 5.4415 9.6489-1.7011 1.03-3.6963 1.6229-5.8302 1.6229-6.22524 0-11.2718-5.0465-11.2718-11.2718 0-6.22524 5.04656-11.2718 11.2718-11.2718 2.1339 0 4.1291.592924 5.8302 1.623z"/><path d="m17.1037 20.9187c3.2617-1.9751 5.4415-5.5573 5.4415-9.6488 0-4.09142-2.1798-7.67372-5.4415-9.64881-3.2617 1.97509-5.4416 5.55739-5.4416 9.64881 0 4.0915 2.1799 7.6737 5.4416 9.6488z" opacity=".5"/></g></g></svg>