<svg fill="none" height="24" viewBox="0 0 92 24" width="92" xmlns="http://www.w3.org/2000/svg"><g fill="#141414"><g opacity=".4"><path d="m3.43435 19.326 6.1101 4.0737c.23823.1584.51795.2429.80395.2429.2861 0 .5658-.0845.8041-.2429l6.1101-4.0737c.9938-.6601 1.8087-1.5561 2.3719-2.6079.5631-1.0518.857-2.2268.8554-3.4199v-11.38107c0-.38517-.153-.75456-.4254-1.026921-.2724-.272357-.6418-.425365-1.0269-.425365h-17.37827c-.38517 0-.754569.153008-1.026926.425365-.272357.272361-.425366.641751-.425366 1.026921v11.38107c-.00164 1.1931.292242 2.3681.855402 3.4199.56315 1.0518 1.37805 1.9478 2.37191 2.6079zm-.33-15.96384h14.48655v9.93604c.002.7168-.1738 1.4229-.5118 2.055-.3379.6321-.8274 1.1705-1.4246 1.5669l-5.3081 3.5363-5.30647-3.5395c-.59671-.3962-1.08591-.934-1.42383-1.5655-.33793-.6315-.51403-1.3369-.51255-2.0532z"/><path d="m8.89774 14.9512c.38397-.0006.7521-.1532 1.02387-.4244l5.79139-5.79467-2.0445-2.04854-4.76995 4.77001-1.87345-1.87269-2.04854 2.04849 2.89732 2.8974c.27177.2712.63989.4238 1.02386.4244z"/></g><path d="m32.1255 18.3021c-.9289-.0089-1.8535-.1259-2.7553-.3485-.791-.1689-1.5608-.4249-2.2955-.7633l.3228-2.9626c1.5601.8353 3.287 1.3119 5.0547 1.395.6342.0346 1.264-.122 1.8081-.4494.2135-.1447.3859-.3421.5004-.5731.1146-.2311.1673-.4878.1532-.7453.0147-.3911-.1132-.7741-.3599-1.0779-.2853-.3156-.6391-.5615-1.0343-.7189-.4502-.1942-1.1691-.4655-2.1567-.8141-.8005-.2622-1.5739-.6013-2.3091-1.0126-.5879-.33297-1.0863-.80363-1.4523-1.37157-.3702-.6216-.5531-1.33682-.5269-2.05983-.0196-.60165.0999-1.19973.3493-1.74763.2493-.54789.6219-1.0308 1.0885-1.41109 1.1883-.87037 2.6451-1.29456 4.1148-1.19814.8468.00045 1.6908.09544 2.5165.2832.7828.17291 1.551.40597 2.2979.69709l-.2816 2.85375c-.8004-.35654-1.6268-.65136-2.4721-.88186-.7287-.1937-1.4793-.29268-2.2333-.29449-.6579-.03994-1.314.10334-1.8953.4139-.2067.12234-.3766.29825-.4916.50914s-.171.44894-.1619.689c-.0144.36603.1101.72396.3485 1.00208.2646.28399.5878.50699.9473.65353.3991.17427.9907.38485 1.775.63174 1.3979.36778 2.7063 1.01648 3.8453 1.90658.4061.3728.7251.8306.9343 1.3407.2091.5101.3034 1.06.276 1.6106.0118 1.1613-.4343 2.2805-1.2417 3.1152-.8295.8859-2.3845 1.3288-4.6651 1.3288zm10.1515-.0871c-.4159.0117-.8299-.0604-1.2173-.212-.3875-.1517-.7404-.3797-1.0378-.6707-.3071-.3136-.5459-.6874-.7014-1.0979s-.2244-.8487-.2022-1.2871c-.0147-.4326.0703-.8627.2484-1.2572s.4445-.7428.7786-1.018c.7042-.5846 1.5318-1.0017 2.4205-1.2199.8758-.2318 1.7743-.3671 2.6795-.4034.0223-.5037-.1535-.996-.4897-1.37165-.4223-.31505-.9463-.46251-1.4709-.4139-.4751-.00053-.9479.06546-1.4047.19606-.5437.16479-1.0723.37615-1.5797.63179l-.2421-2.20026c1.2297-.61735 2.5841-.94574 3.9599-.96013.5342-.03597 1.0701.0386 1.5741.21907.5041.18047.9655.46296 1.3555.82981.7562.9381 1.1194 2.13271 1.0134 3.33301v2.9409c-.0112.3974.0144.795.0766 1.1876.0081.0906.0356.1784.0808.2573.0451.079.1067.1472.1806.2002.1969.0786.4089.1123.6205.0984h.3485l-.238 2.218h-.9779c-.5215.0173-1.0389-.0987-1.5031-.3373-.3956-.2134-.7216-.536-.9391-.9294-.393.4229-.8844.7421-1.4305.9294-.6088.2258-1.2532.34-1.9025.3373zm1.1295-2.0695c.3224-.0098.6402-.0798.9368-.2066.3391-.1321.6498-.3282.9149-.5777v-2.4834c-.8006.0255-1.5871.2179-2.3091.5648-.2868.1063-.5354.2958-.7139.5441-.1785.2484-.2789.5444-.2882.8501-.0156.1804.0075.3621.0676.5329.0601.1709.1558.327.2809.4579.3203.2379.7169.3496 1.1143.3138zm11.6797 7.3381c-1.2808.0618-2.5541-.2284-3.6816-.8391-.4148-.2178-.7621-.5451-1.0039-.9464s-.369-.8612-.3677-1.3297c.0244-.5501.2027-1.0822.5144-1.5361.3118-.4538.7446-.8111 1.2493-1.0312-.2853-.1462-.5254-.3675-.6943-.6401-.1689-.2725-.2603-.586-.2642-.9066-.0036-.3221.1-.6363.2945-.8932.2088-.2719.4807-.4887.7923-.6317-.5429-.3816-.975-.9002-1.2522-1.5031-.2869-.6296-.4312-1.3148-.4228-2.0066-.0089-.7619.1707-1.51409.5229-2.18973.3466-.6588.8761-1.20345 1.5249-1.56847.7264-.39919 1.5458-.59827 2.3745-.57688.879-.02266 1.7445.22028 2.4834.6971.3148-.15447.648-.26808.9916-.33806.4397-.09703.889-.14439 1.3393-.14119h.6971l-.1743 1.69917h-.9843c-.2469 0-.4502.00726-.61.02179.4494.71682.6768 1.55057.6536 2.39627.0091.7603-.1665 1.5114-.5116 2.1889-.3389.6602-.864 1.2063-1.5103 1.5709-.7265.3992-1.5459.5983-2.3745.5769-.3894-.0071-.7767-.0582-1.1546-.1525-.0718.0254-.1338.0727-.1773.1352-.0434.0626-.0661.1372-.0648.2134.0051.0996.04.1953.1001.2749.0601.0795.1428.1392.2372.1712.3662.1447.7512.2365 1.1433.2727l1.8734.2421c2.498.334 3.7469 1.3869 3.7469 3.1587.0106.5229-.113 1.0397-.359 1.5012-.2461.4615-.6064.8522-1.0465 1.1347-1.1654.7131-2.5208 1.0534-3.8848.9755zm-.4139-9.9305c.2736.0156.5471-.0323.799-.1401.252-.1078.4756-.2725.6533-.4811.3654-.4932.5453-1.0994.5083-1.7121.0355-.6126-.1459-1.2182-.5124-1.71047-.1777-.20864-.4013-.3733-.6532-.48108-.252-.10778-.5255-.15576-.7991-.14018-.2763-.01669-.5528.0307-.8078.13847-.2549.10776-.4816.27299-.6622.48279-.3665.49227-.5479 1.09787-.5123 1.71047-.0354.6124.146 1.2177.5123 1.7097.1808.2108.408.3768.6637.485.2558.1082.5332.1557.8104.1386zm.5228 7.886c1.8589 0 2.7884-.4572 2.7884-1.3716.0104-.1802-.0287-.3598-.1132-.5193-.0845-.1594-.2111-.2927-.3661-.3852-.4972-.2513-1.0361-.4099-1.5902-.4679l-2.3963-.3494c-.3435.0867-.6499.2819-.8736.5566-.2237.2748-.3528.6143-.3681.9683-.004.2496.0664.4948.2021.7042.1358.2095.3309.3739.5603.4722.6791.2951 1.4172.4293 2.1567.3921zm6.4925-18.69098h2.7013v2.70126h-2.7013zm0 4.35687h2.7013v10.89221h-2.7013zm8.7783 11.11001c-.4024.0283-.8061-.0322-1.1826-.1772-.3764-.145-.7164-.371-.9958-.6619-.4926-.5548-.7571-1.2754-.7407-2.0171v-6.03423h-1.5467l.2421-2.222h1.307v-2.39628l2.7013-.2832v2.6819h2.3963v2.222h-2.3987v4.92161c-.0165.4059.0166.8124.0984 1.2103.0245.1026.0757.1969.1484.2734s.1643.1325.2655.1623c.3752.0819.7595.115 1.1433.0984h.7406l-.2396 2.222zm7.4938 0c-.4023.0284-.806-.032-1.1825-.1768-.3764-.1449-.7164-.3707-.9959-.6615-.4926-.5548-.7571-1.2753-.7407-2.0171v-6.03423h-1.5467l.2421-2.222h1.307v-2.39627l2.7013-.2832v2.68109h2.3963v2.222h-2.3971v4.92161c-.0167.4059.016.8123.0976 1.2103.0245.1026.0757.1969.1484.2734s.1643.1325.2655.1623c.3755.082.7601.1151 1.1441.0984h.7407l-.2413 2.222zm6.2933 0c-.4154.0113-.8288-.061-1.2156-.2127-.3868-.1516-.7393-.3794-1.0363-.67-.3071-.3136-.5459-.6874-.7014-1.0979s-.2244-.8487-.2022-1.2871c-.0151-.4322.0692-.8622.2466-1.2567s.443-.7429.7764-1.0185c.7041-.5846 1.5317-1.0017 2.4205-1.2199.8758-.2318 1.7743-.3671 2.6795-.4034.0223-.5037-.1535-.996-.4898-1.37165-.4222-.31505-.9462-.46251-1.4708-.4139-.4754-.00061-.9485.06539-1.4055.19606-.5435.16483-1.0718.37619-1.579.63179l-.242-2.20026c1.2312-.61751 2.5874-.94536 3.9647-.95852.5343-.03608 1.0704.03844 1.5746.21891s.9658.46302 1.3558.82997c.7562.9381 1.1194 2.1327 1.0134 3.333v2.9409c-.0115.3974.0139.7949.0758 1.1876.0081.0906.0357.1784.0808.2573.0451.079.1067.1473.1807.2002.1971.0788.4094.1124.6212.0984h.3486l-.2405 2.2164h-.9803c-.5216.0173-1.0389-.0987-1.5031-.3373-.3953-.2135-.721-.5361-.9383-.9294-.3915.4221-.8808.7413-1.4249.9294-.61.2263-1.2559.3405-1.9065.3373zm1.1295-2.0695c.3224-.0098.6401-.0798.9367-.2066.3392-.1321.6498-.3282.915-.5777v-2.4834c-.8007.0255-1.5871.2179-2.3092.5648-.2867.1063-.5353.2958-.7138.5441-.1785.2484-.2789.5444-.2882.8501-.0149.1812.0092.3635.0706.5347.0613.1711.1586.3272.2852.4577.3192.2362.7138.3473 1.1094.3122z"/></g></svg>