<svg fill="none" height="32" viewBox="0 0 82 32" width="82" xmlns="http://www.w3.org/2000/svg"><g fill="#141414"><path d="m19.6319 2.63826c.1685.39644.2443.82609.2217 1.25626s-.1431.8495-.3522 1.22608c-.4863.82772-1.2569 1.45048-2.1682 1.75228-1.3322.51095-2.7894.5997-4.1738.25422-1.3835-.30528-2.6616-.97117-3.70464-1.93008l.34634-.37727c.606.36764 1.2722.62529 1.9678.76107.8349.14967 1.6907.13829 2.5213-.03355l-.1088-.81672c-.1442-.79435-.0374-1.61389.3055-2.34477.3234-.65072.8851-1.15178 1.5683-1.399013.3409-.145165.7089-.215406 1.0793-.205969.3703.009438.7343.098334 1.0673.260672.6675.32427 1.1811.89767 1.4301 1.59679z" opacity=".5"/><path d="m5.21146 24.4778c-.9301.0121-1.85713-.1093-2.7528-.3603-.77784-.2255-1.532591-.5241-2.254151-.8919l.03146-3.7233h.314606l1.061795 1.8774c.36623.7225.884 1.3575 1.51797 1.8617.61905.4281 1.3605.6434 2.11258.6134.85939.0409 1.70925-.1948 2.42483-.6724.29187-.1991.52927-.468.69056-.7824.16128-.3143.24132-.664.23281-1.0172.0123-.3127-.03971-.6246-.15281-.9164s-.28488-.5573-.50472-.7801c-.71085-.578-1.54507-.9849-2.4382-1.1892l-1.31741-.4027c-1.14254-.2987-2.1814-.9047-3.0037-1.7523-.729371-.7909-1.1220665-1.8347-1.094827-2.9102-.0054746-.6682.137689-1.3293.419131-1.9355.281441-.6061.694116-1.1421 1.208166-1.56916 1.32332-1.03864 2.98395-1.55129 4.66246-1.43932.77451-.0046 1.54673.08466 2.29977.26584.72404.17904 1.42312.44719 2.08112.79831l-.188 3.38203h-.3146l-1.09481-1.9403c-.28933-.559-.68845-1.05394-1.17348-1.4551-.52102-.31759-1.12795-.4652-1.73663-.42236-.71092.00054-1.40646.20707-2.00246.59461-.29427.17082-.53689.41805-.7022.71535-.16531.2974-.24716.634-.2369.9741-.0112.3245.05542.647.1943.9405.13888.2934.34599.5494.60401.7466.71859.5112 1.5155.9022 2.35955 1.1577l1.40786.4066c1.2385.2982 2.36076.957 3.22466 1.8932.6529.8211.9962 1.8457.9698 2.8943.0196.7105-.1341 1.4151-.4476 2.0529-.3135.6379-.7775 1.1899-1.3519 1.6084-1.48639 1.0014-3.26124 1.4854-5.05024 1.3772zm8.19864-.4657v-.3146l.4381-.125c.3458-.0767.6517-.277.8604-.5632.1706-.3051.2524-.652.236-1.0012v-9.7937c.0236-.3448-.0588-.6887-.236-.9855-.2192-.2544-.5266-.4165-.8604-.4538l-.4381-.0936v-.3146l5.7258-1.8491.3146.31461-.0936 4.44379v8.7618c-.016.349.066.6956.2368 1.0004.1998.2811.494.481.829.5632l.3146.0936v.3146zm15.5203-5.4175c-1.2587.0376-2.5098-.2075-3.6612-.7173v1.0618c-.0241.2821.0645.5622.2464.7791.1819.217.4422.3531.7241.3787l5.8832 1.0948c.9064.1671 1.7964.4132 2.6599.7354.7332.262 1.3893.703 1.9089 1.2828.5098.6423.7659 1.4496.7197 2.2683-.0028 1.0301-.3559 2.0286-1.0013 2.8315-.7822.9489-1.8029 1.6726-2.9573 2.0968-1.5558.5756-3.2079.8466-4.8661.7983-1.344.0455-2.6864-.1288-3.9743-.5159-.8085-.2303-1.5319-.692-2.0811-1.3285-.3885-.4901-.6032-1.0954-.6103-1.7208.0214-.8161.2887-1.6067.7668-2.2684.4899-.7411 1.1361-1.3661 1.8932-1.831-.5517-.1833-1.04-.5196-1.4079-.9697-.2822-.3683-.4361-.8189-.4381-1.2828-.0008-.4141.113-.8202.3288-1.1735.2368-.3907.5035-.7625.7975-1.1122l1.0327-1.3142c-.7311-.4033-1.3333-1.0051-1.7369-1.7361-.4036-.7309-.5922-1.5611-.544-2.3947-.0219-.6919.1114-1.3799.3903-2.0135s.6962-1.1966 1.2213-1.64772c1.0744-.93858 2.6547-1.40786 4.7411-1.40786.9471-.0163 1.8913.11017 2.8008.37516.729.21108 1.4052.57371 1.9843 1.06416.6487-.09904 1.2839-.27216 1.8932-.51596.5885-.23614 1.1332-.56925 1.6115-.9855l.4381.31461v1.59581h-3.5393c.7723.8924 1.1751 2.0456 1.1263 3.2247.016.6831-.12 1.3612-.3982 1.9853-.2781.6241-.6915 1.1785-1.2102 1.6233-1.0749.9501-2.6556 1.4251-4.7419 1.4251zm-.0315-.6292c.3719.021.742-.0651 1.0665-.248.3246-.1829.5899-.4549.7645-.7839.4617-1.0856.6601-2.2649.5789-3.4418.0859-1.162-.1128-2.3274-.5789-3.3954-.1731-.3131-.4305-.57143-.743-.74563-.3126-.1742-.6677-.25729-1.0251-.23983-.358-.01176-.7121.07736-1.022.25717-.3098.17981-.5629.44308-.7303.75979-.4751 1.0766-.6792 2.2531-.5946 3.4268-.0796 1.1642.1088 2.3311.5505 3.4112.1612.317.4108.5805.7186.7586.3077.1781.6606.2632 1.0157.245zm-4.6648 8.6713c-.0366.5208.0475 1.043.2455 1.526.1981.4831.5049.9139.8965 1.2591 1.065.7135 2.3405 1.0446 3.618.9391 1.3565.0878 2.7107-.2042 3.9105-.8432.4126-.2424.7526-.5912.9844-1.0098.2319-.4186.3472-.8918.3338-1.3701.009-.2683-.0442-.5351-.1556-.7793-.1113-.2443-.2777-.4594-.4861-.6286-.65-.4431-1.3975-.7224-2.1787-.814l-5.6637-1.0611-.501-.125c-.3034.4396-.5455.9186-.7197 1.4236-.1778.4748-.2738.9764-.2839 1.4833zm14.4908-2.6246v-.3146l.438-.125c.3347-.0635.6318-.254.829-.5317.1719-.3059.2634-.6504.2659-1.0012v-9.7969c.0263-.3525-.0482-.7052-.2147-1.0169-.2107-.2569-.5143-.42-.8448-.4538l-.4719-.1251v-.3146l5.3483-1.81528.3146.3146.2502 2.12748c.6973-.6954 1.4921-1.28575 2.3595-1.75231.8476-.46974 1.8003-.71732 2.7693-.71966.8459-.04106 1.6848.17146 2.4091.61033.6502.46709 1.133 1.13074 1.3772 1.89314.7781-.7472 1.6708-1.36511 2.6443-1.83021.8615-.42748 1.8076-.65722 2.7693-.67247.5885-.05014 1.1812.0182 1.7429.20098.5617.18277 1.0811.47628 1.5274.86317.7763.93473 1.153 2.13763 1.0484 3.34823v9.1684c-.0322.349.0646.6978.2722.9802.2075.2825.5114.4791.8541.5527l.3469.0959v.3146h-7.2281v-.3146l.3146-.0936c.3349-.0822.6292-.282.829-.5631.1706-.3052.2523-.652.2359-1.0012v-9.5782c.0695-.6375-.0985-1.2782-.4719-1.7996-.2048-.1778-.4434-.3124-.7016-.3958-.2581-.0834-.5304-.1138-.8006-.0894-.5469.0011-1.0867.1242-1.5801.3602-.5825.2873-1.1244.6504-1.6116 1.0799.1086.3562.177.7234.2037 1.0948.0315.3964.0472.8135.0472 1.2513v8.1011c-.024.3475.076.6923.2822.9729.2062.2807.5053.4792.8441.5601l.2808.1006v.3146h-7.2595v-.3146l.438-.125c.3319-.0818.625-.2764.829-.5506.172-.2989.2539-.6411.236-.9855v-9.5436c.0579-.629-.1024-1.2588-.4538-1.7838-.2039-.1959-.4481-.345-.7156-.4369-.2675-.0918-.5518-.1241-.8331-.0948-.5014.0055-.9945.1289-1.4393.3603-.5435.2839-1.0483.6362-1.5022 1.0484v10.4827c-.0346.3448.0574.6905.2588.9725.2015.282.4986.4812.836.5604l.2808.0959v.3146zm31.6359.472c-1.1082.0348-2.1917-.3319-3.0508-1.0327-.4196-.3692-.749-.8296-.9628-1.346-.2138-.5163-.3063-1.0749-.2705-1.6326.0272-.5358.1767-1.0584.4371-1.5275s.6248-.8724 1.0651-1.1789c1.4032-.9902 3.0239-1.6287 4.7254-1.8616.334-.0624.7095-.1303 1.1263-.2038.4169-.0734.855-.152 1.3143-.2359v-2.472c.0775-1.0236-.0998-2.0504-.516-2.9888-.1635-.27821-.401-.50563-.6861-.65697-.2851-.15135-.6065-.22069-.9286-.20031-.2216-.01069-.4429.02721-.6483.11104-.2054.08382-.39.21155-.5409.37424-.3522.4887-.5485 1.0723-.5631 1.6745l-.063.3445c.0231.7143-.2098 1.4133-.6567 1.971-.1866.203-.4143.3641-.6678.4726-.2536.1085-.5273.1618-.803.1566-.497.0168-.9807-.1632-1.3457-.501-.179-.1738-.3189-.3837-.4106-.6157s-.1329-.4809-.1211-.73c-.0085-.402.0663-.8014.2198-1.173.1535-.3715.3824-.7073.6721-.986.6668-.62511 1.4771-1.07647 2.3596-1.31429 1.037-.29995 2.1121-.44752 3.1916-.43809 1.5542-.10025 3.0894.38551 4.3031 1.36146 1.0119.90762 1.5179 2.38362 1.5179 4.42812v6.9158c0 .9386.4381 1.4078 1.3143 1.4078h.6882l.2816.2502c-.3552.4635-.795.8556-1.2962 1.1553-.6164.3038-1.3006.4438-1.9867.4067-.7774.043-1.5456-.1841-2.1748-.6426-.5345-.4315-.9046-1.0335-1.0484-1.7052-.5838.6304-1.2285 1.2015-1.9246 1.7052-.755.4969-1.6477.7424-2.5507.7016zm1.9089-1.9089c.41.0018.8138-.1005 1.1735-.2973.4612-.2659.896-.575 1.2985-.9234v-5.2571l-.6292.1251c-.2097.042-.4496.0836-.7196.1251-.8695.2002-1.666.639-2.2998 1.267-.293.3217-.5196.6981-.6667 1.1076-.1472.4096-.2119.8441-.1906 1.2787-.053.6937.1595 1.3817.5946 1.9246.1794.2047.4008.3681.6493.4792.2484.111.5179.167.79.1642z"/></g></svg>