<svg fill="none" height="30" viewBox="0 0 94 30" width="94" xmlns="http://www.w3.org/2000/svg"><g fill="#141414"><path d="m19.3355.0867062c-.3468-.0867062-.7804-.0867062-1.1272-.0867062h-6.9365c-.3468 0-.7803 0-1.1272.0867062-5.72258.5202378-10.1446 5.3757838-10.1446 11.1850938v6.9365c0 5.9827 4.68214 10.925 10.6649 11.2718h.6069 6.9365.607c5.9827-.3468 10.6648-5.2891 10.6648-11.2718v-6.9365c0-5.80931-4.422-10.664856-10.1446-11.1850938zm7.1966 18.1215938c0 4.5954-3.7284 8.3238-8.3238 8.3238h-6.9365c-4.59542 0-8.32379-3.7284-8.32379-8.3238v-6.9365c0-4.59542 3.72837-8.32379 8.32379-8.32379h6.9365c4.5954 0 8.3238 3.72837 8.3238 8.32379z" opacity=".5"/><path d="m21.244 16.214c-.2601-.1734-.607-.3468-.8671-.3468-.5202 0-.9538.2601-1.3006.6069-1.0405 1.3006-2.6879 2.081-4.3353 2.1677-1.7341-.0867-3.2948-.8671-4.3353-2.1677-.52024-.6936-1.47401-.7803-2.16766-.2601-.60695.5203-.78036 1.3873-.34683 2.081 1.64742 2.0809 4.16189 3.2948 6.76309 3.3815 2.6879-.0867 5.1157-1.3006 6.7631-3.3815.2601-.3469.3468-.6937.2601-1.1272.0867-.3468-.0867-.7804-.4335-.9538z" opacity=".5"/><path d="m40.5778 21.6787c-1.474.0867-2.948-.2601-4.2486-1.0405-.5203-.2601-.7804-.7803-.7804-1.3005 0-.2602.0867-.5203.2601-.7804.1735-.1734.4336-.3468.6937-.2601.4335 0 .7804.1734 1.1272.3468.4335.2601.9537.4335 1.3873.5202.5202.1735 1.0405.1735 1.6474.1735.5202 0 1.1272-.0868 1.5607-.3469.3468-.1734.607-.5202.607-.9537 0-.2602-.0868-.4336-.2602-.6937-.2601-.1734-.5202-.3468-.7803-.4335-.607-.1734-1.2139-.3468-1.8209-.4336-1.1271-.1734-2.1676-.6069-3.0347-1.2138-.6069-.5203-.9537-1.3873-.9537-2.1677 0-.6936.1734-1.3873.6069-1.9075.4335-.607 1.0405-1.0405 1.7341-1.30063.7804-.34682 1.6474-.52023 2.5145-.43353.6937 0 1.3006.08671 1.9075.26012.607.17341 1.1272.43354 1.6475.69364.4335.2601.7803.7804.7803 1.3006 0 .2601-.0867.6069-.2601.7804-.1734.1734-.4335.3468-.6936.3468-.1735 0-.3469 0-.5203-.0867-.2601-.0867-.4335-.1734-.6069-.3468-.3469-.1735-.7804-.3469-1.2139-.5203s-.8671-.1734-1.2139-.1734c-.5202 0-.9538.0867-1.3873.3468-.3468.1734-.5202.607-.5202.9538s.1734.7804.5202.9538c.6069.3468 1.3006.5202 2.0809.6069.8671.1734 1.7342.4335 2.5145.7804.5203.2601.9538.6069 1.3006 1.0404.2601.5203.4336 1.0405.4336 1.6475 0 1.0404-.5203 2.0809-1.3873 2.6011-1.1272.6937-2.3411 1.0405-3.6417 1.0405zm21.85-12.31226c1.1271-.08671 2.1676.34682 2.948 1.12716.7803 1.0405 1.1272 2.3411 1.0405 3.7284v5.896c0 .4335-.0868.7804-.4336 1.0405s-.6936.4335-1.1272.3468c-.4335 0-.7803-.0867-1.0404-.3468-.2602-.2601-.4336-.6937-.4336-1.0405v-5.896c.0867-.6937-.0867-1.3006-.4335-1.9076-.3468-.4335-.8671-.6069-1.474-.6069-.6937 0-1.3873.2601-1.9075.7804-.5203.6069-.7804 1.3873-.6937 2.1676v5.3758c0 .4335-.0867.7804-.4335 1.0405-.2601.2601-.6937.3468-1.0405.3468-.4335 0-.7804-.0867-1.0405-.3468s-.4335-.6937-.4335-1.0405v-5.896c.0867-.6937-.0867-1.3006-.4335-1.9076-.3469-.4335-.8671-.6069-1.474-.6069-.6937 0-1.3873.2601-1.9076.7804-.5202.6069-.6936 1.3873-.6936 2.1676v5.3758c0 .4335-.1734.7804-.4336 1.0405-.2601.2601-.6936.3468-1.0404.3468-.4336 0-.7804-.0867-1.0405-.3468s-.4335-.6937-.4335-1.0405v-9.1042c0-.4335.1734-.7803.4335-1.04043.3468-.26012.6936-.34683 1.0405-.34683.3468 0 .7803.08671 1.0404.34683.2602.26013.4336.60693.4336 1.04043v.607c.3468-.607.867-1.1272 1.474-1.47402.6936-.34682 1.3873-.52024 2.1676-.52024 1.5607-.17341 3.0348.78036 3.555 2.25436.3468-.6936.8671-1.2139 1.5607-1.6474.6937-.43354 1.474-.69366 2.2544-.69366zm9.0174 12.22556c-.4335 0-.7803-.0867-1.0405-.3468-.2601-.2601-.4335-.6937-.4335-1.0405v-9.3643c0-.4335.0867-.7803.4335-1.04043.2602-.26012.6937-.34683 1.0405-.34683.4335 0 .7804.08671 1.0405.34683.2601.26013.4335.69363.4335 1.04043v9.2776c0 .4335-.1734.7804-.4335 1.0405-.2601.3468-.607.4335-1.0405.4335zm0-14.30651c-.4335 0-.9538-.17342-1.3006-.43353-.3468-.26012-.5202-.69365-.5202-1.12719 0-.43353.1734-.86706.5202-1.12718.3468-.34682.8671-.43353 1.3006-.43353s.9538.17341 1.3006.43353.5202.69365.5202 1.12718c0 .43354-.1734.86707-.5202 1.12719-.3468.34682-.7803.43353-1.3006.43353zm6.5897 14.30651c-.4335 0-.7804-.0867-1.0405-.3468s-.4335-.6937-.4335-1.0405v-14.39322c0-.43353.0867-.78036.4335-1.04047.3468-.26012.6937-.43354 1.0405-.43354.4335 0 .7803.08671 1.0405.34683.2601.26012.4335.69365.4335 1.04047v14.39323c0 .4335-.1734.7804-.4335 1.0405-.2602.3468-.607.4335-1.0405.4335zm14.4799-3.3815c.2601 0 .5203.0867.6937.3468s.2601.5202.2601.8671c0 .5202-.3468 1.0404-.8671 1.2138-.6069.3469-1.2139.607-1.8208.6937-.6069.1734-1.3006.2601-1.9942.2601-1.6475.0867-3.2949-.5202-4.5088-1.6474-1.1271-1.2139-1.7341-2.8613-1.6474-4.5087 0-1.1272.2601-2.1677.6937-3.2082.4335-.867 1.1272-1.6474 1.9942-2.1676.8671-.52025 1.9076-.78037 2.948-.78037.9538 0 1.9076.26012 2.7746.69365.7804.43352 1.3873 1.12722 1.8209 1.99422.4335.9538.6936 1.9943.6936 3.0347 0 .6937-.3468 1.0405-.9538 1.0405h-7.1099c0 .8671.3468 1.7341.9538 2.4278.6069.5202 1.474.8671 2.3411.7803.4335 0 .9537-.0867 1.3873-.1734.4335-.1734.867-.3468 1.3006-.5202.2601-.1734.6069-.2601 1.0404-.3468zm-4.1619-6.6764c-.6936 0-1.474.2601-1.9942.7803-.5203.607-.8671 1.3873-.8671 2.2544h5.4625c0-.7803-.2601-1.5607-.6936-2.2544-.5203-.6069-1.2139-.867-1.9076-.7803z" opacity=".999"/></g></svg>