<svg fill="none" height="26" viewBox="0 0 90 26" width="90" xmlns="http://www.w3.org/2000/svg"><g fill="#141414"><path d="m31.5103 12.877c-.0116-.939.175-1.8699.5478-2.7318.3544-.81102.8788-1.53645 1.5377-2.12729.692-.61144 1.4983-1.07961 2.3724-1.37742.9896-.3357 2.0292-.50005 3.074-.48598 1.0427-.01213 2.0797.15318 3.0669.48885.8769.29669 1.6861.76493 2.3803 1.37743.6589.59084 1.1833 1.31627 1.5377 2.12721.3728.862.5594 1.7929.5478 2.7319.011.945-.1756 1.8818-.5478 2.7505-.354.8185-.8782 1.5522-1.5377 2.1524-.693.6196-1.5021 1.0956-2.3803 1.4004-.9854.3439-2.0232.5134-3.0669.5011-1.0449.0123-2.084-.158-3.0704-.5032-.8755-.3066-1.6818-.7833-2.3724-1.4026-.6606-.5995-1.1861-1.3327-1.5413-2.151-.3722-.8687-.5587-1.8055-.5478-2.7505zm2.6707 0c-.0098.6314.1152 1.2576.3666 1.8368.2356.5326.5833 1.0081 1.0195 1.394.4511.3941.9749.6962 1.542.8892.6221.2125 1.2758.3178 1.9331.3113.6574.0062 1.3111-.0993 1.9332-.312.566-.1923 1.0885-.4942 1.5377-.8885.4345-.3875.7819-.8625 1.0194-1.394.2542-.5785.3808-1.205.371-1.8368.0103-.6291-.1162-1.2529-.371-1.8282-.2368-.5238-.5846-.9898-1.0194-1.36591-.451-.38375-.9737-.67428-1.5377-.85477-.6242-.20268-1.2769-.30342-1.9332-.29835-.656-.00623-1.3087.09329-1.9331.29475-.565.18116-1.089.47159-1.542.85478-.4364.3745-.7846.841-1.0195 1.3659-.2523.5772-.3774 1.202-.3666 1.8318zm15.0467-3.31919h2.4939v1.43209c.5467-.4079 1.1307-.7634 1.744-1.06186.5853-.28757 1.1977-.51612 1.8282-.68224l.7333 2.2832c-.8738.074-1.7292.2926-2.5313.6471-.7009.313-1.311.7985-1.7735 1.4112v5.9115h-2.4946zm9.9662-1.35658c-.2277.00327-.4543-.03222-.67-.10496-.1864-.06314-.3593-.16068-.5098-.28756-.1366-.11593-.2471-.25951-.3242-.42128-.0756-.15924-.1144-.33344-.1136-.5097-.0014-.17911.0374-.35626.1136-.51833.0764-.16096.1871-.30328.3242-.41697.1515-.12422.3242-.21994.5098-.28253.2157-.07274.4423-.10823.67-.10496.2303-.00364.4595.03185.6779.10496.1856.06259.3583.15831.5097.28253.1372.11369.2478.25601.3242.41697.0763.16207.1151.33922.1136.51833.0008.17626-.038.35046-.1136.5097-.077.16177-.1876.30535-.3242.42128-.1504.12688-.3233.22442-.5097.28756-.2184.07311-.4476.1086-.6779.10496zm-1.2445 1.35658h2.4939v9.94099h-2.4939zm5.0885 4.97049c-.0054-.6919.1419-1.3765.4313-2.005.2916-.6269.7136-1.1842 1.238-1.6348.5733-.4872 1.2336-.8617 1.946-1.10352.8258-.27991 1.6933-.41655 2.5651-.40403.8718-.01229 1.7393.1246 2.565.40475.7125.2419 1.3728.6163 1.9461 1.1035.5253.4508.9481 1.0087 1.2401 1.6362.2895.6285.4367 1.3131.4314 2.0051.0053.6919-.1419 1.3765-.4314 2.005-.2918.6267-.7141 1.1838-1.2386 1.6341-.5735.4867-1.2338.8606-1.9461 1.1021-.8257.2801-1.6932.417-2.5651.4047-.8718.0125-1.7393-.1241-2.565-.404-.7131-.2422-1.3739-.6171-1.9475-1.105-.5245-.4503-.9469-1.0074-1.2387-1.6341-.2899-.6283-.4377-1.3129-.4328-2.005zm2.6204 0c-.0018.3905.0801.7768.2401 1.133.1631.3609.4017.6828.6995.9439.329.2851.7094.5047 1.1208.647.4834.1672.9924.2485 1.5039.2402.5115.0083 1.0205-.073 1.504-.2402.4113-.1423.7917-.3619 1.1207-.647.2966-.2615.5338-.5833.6959-.9439.16-.3562.2419-.7425.2401-1.133.0019-.3928-.08-.7815-.2401-1.1402-.1624-.3624-.4009-.6856-.6995-.9475-.329-.2851-.7094-.5047-1.1207-.647-.4835-.1671-.9925-.2484-1.504-.2401-.5115-.0083-1.0205.073-1.5039.2401-.4114.1423-.7918.3619-1.1208.647-.298.2621-.5361.5852-.6981.9475-.1601.3587-.242.7474-.2401 1.1402zm12.2666-4.97049h2.4939v.84259c.5949-.3479 1.2341-.61389 1.9001-.79083.5796-.14851 1.1753-.22481 1.7735-.22718.7158-.00681 1.4277.10568 2.1064.33286.6225.20797 1.1938.54535 1.6765.98995.4854.4579.8636 1.0174 1.1078 1.6384.2778.7227.4126 1.4925.3969 2.2667v4.8885h-2.4853v-4.4816c.0078-.4969-.0705-.9914-.2315-1.4616-.1401-.4064-.3673-.7774-.6657-1.0869-.2969-.2997-.6566-.5298-1.0532-.6737-.4443-.1598-.9138-.2382-1.386-.2314-.2786.0008-.5565.029-.8296.0841-.2843.0563-.5633.1367-.834.2401-.275.1044-.5397.2342-.7908.3875-.248.1507-.4796.3271-.6908.5262v6.6973h-2.491z" stroke="#141414" stroke-width=".3"/><path d="m13.4166 25.4191c-2.4674 0-4.87933-.7317-6.93086-2.1025s-3.6505-3.3191-4.59471-5.5986c-.944218-2.2796-1.191268-4.7879-.70991-7.2079.48136-2.41991 1.6695-4.64277 3.41418-6.38745 1.74468-1.74469 3.96755-2.93283 6.3875-3.414188 2.4199-.481356 4.9283-.234307 7.2078.709908 2.2795.94422 4.2279 2.54319 5.5987 4.59472s2.1024 4.46351 2.1024 6.93081c0 3.3086-1.3143 6.4817-3.6539 8.8213-2.3395 2.3395-5.5126 3.6539-8.8212 3.6539zm0-2.4953c2.6469 0 5.1854-1.0515 7.057-2.9232 1.8717-1.8716 2.9232-4.4101 2.9232-7.057 0-2.647-1.0515-5.18546-2.9232-7.05711-1.8716-1.87165-4.4101-2.92313-7.057-2.92313s-5.18544 1.05148-7.05709 2.92313c-1.87166 1.87165-2.92314 4.41011-2.92314 7.05711 0 2.6469 1.05148 5.1854 2.92314 7.057 1.87165 1.8717 4.41019 2.9232 7.05709 2.9232zm2.4953-12.4752h-3.7426c-.3309 0-.6483-.1315-.8823-.3654-.2339-.23402-.3654-.55136-.3654-.88226s.1315-.64825.3654-.88223c.234-.23398.5514-.36543.8823-.36543h4.9899c.3308 0 .6481.13141.882.36532.2339.23392.3653.55117.3653.88198v4.98992c0 .3309-.1315.6482-.3654.8822-.234.234-.5514.3655-.8823.3655s-.6482-.1315-.8822-.3655-.3654-.5513-.3654-.8822zm-3.7426 3.7426h-3.74265c-.3309 0-.64824-.1314-.88223-.3654-.23398-.234-.36543-.5513-.36543-.8822s.13145-.6483.36543-.8823c.23399-.234.55133-.3654.88223-.3654h4.98995c.3308 0 .648.1314.8819.3653.234.2339.3654.5512.3654.882v4.9899c0 .3309-.1315.6483-.3655.8822-.2339.234-.5513.3655-.8822.3655s-.6482-.1315-.8822-.3655c-.234-.2339-.3654-.5513-.3654-.8822z" opacity=".4"/></g></svg>