<svg fill="none" height="16" viewBox="0 0 101 16" width="101" xmlns="http://www.w3.org/2000/svg"><path d="m.980469 15.1627v-14.498858h3.142581l4.61049 9.196438 4.54846-9.196438h3.1426v14.498858h-2.6464v-10.00421l-4.03159 7.93301h-2.08816l-4.03504-7.93301v10.00421zm20.323431 0v-14.498858h2.6498v14.498858zm7.5256 0v-14.498858h3.1426l4.6105 9.196438 4.5485-9.196438h3.1425v14.498858h-2.6463v-10.00421l-4.0316 7.93301h-2.0882l-4.0316-7.93301v10.00421zm27.1048.2486c-1.3258.0311-2.6353-.2969-3.7904-.9494-1.075-.6279-1.9553-1.542-2.543-2.6408-.6338-1.203-.9516-2.54783-.9235-3.90782-.0286-1.35852.288-2.70203.92-3.90434.5878-1.09882 1.468-2.01295 2.543-2.64087 1.1552-.652433 2.4647-.98041 3.7904-.949328h6.5229c1.2705-.009485 2.5209.318047 3.6242.949328 1.078.62399 1.9592 1.53911 2.543 2.64087.6265 1.20408.9405 2.54675.9131 3.90434.0285 1.3573-.2843 2.69992-.9097 3.90432-.5844 1.1021-1.4666 2.0173-2.5456 2.6409-1.1072.6161-2.3516.9426-3.6181.9493.131 0-6.3747.0035-6.5263.0035zm0-2.382h6.547c.5864.0094 1.1679-.1075 1.7052-.3429.5373-.2355 1.0178-.5838 1.409-1.0215.8686-1.0498 1.3081-2.39027 1.2301-3.75162.0774-1.36047-.3621-2.69987-1.2301-3.74899-.405-.43314-.8948-.77795-1.4387-1.01287-.544-.23492-1.1305-.3549-1.7229-.35245.137 0-6.3609 0-6.4988 0-.6174-.02659-1.2332.08193-1.8045.31802s-1.0843.59407-1.5035 1.04902c-.8741 1.04562-1.318 2.38552-1.2413 3.74727-.0774 1.36223.3662 2.70282 1.2405 3.74902.4191.4549.9322.8129 1.5035 1.049s1.187.3446 1.8045.318zm22.9447 2.382c-.9655.0191-1.924-.168-2.8117-.5489-.7751-.3346-1.4412-.8799-1.9228-1.5742-.4856-.7404-.7378-1.61-.7236-2.4959h2.7911c.0134.6436.2767 1.2566.7339 1.7088.2557.2387.557.4229.8857.5415.3287.1187.678.1694 1.0268.149.6003.0323 1.1929-.1472 1.6746-.5075.2015-.1616.3625-.3681.4704-.603.1078-.2349.1594-.4918.1507-.7502.0146-.2573-.0268-.5147-.1214-.7543s-.2401-.4558-.4264-.63347c-.4261-.36568-.922-.64053-1.4576-.8078l-1.9435-.6628c-.9559-.29053-1.8306-.80126-2.5542-1.49132-.2994-.32548-.5312-.70733-.6821-1.12335-.1508-.41602-.2176-.85792-.1966-1.30003-.0347-.78143.1788-1.55378.61-2.2059.433-.62532 1.0289-1.11965 1.7229-1.42918.7938-.351382 1.6546-.524582 2.5223-.50746.8788-.017841 1.7507.158974 2.5533.517816.7008.314464 1.3016.816074 1.7367 1.449894.432.65868.6653 1.42815.672 2.21625h-2.829c-.0141-.51152-.2252-.99773-.5893-1.35668-.2083-.2029-.4565-.36015-.7288-.46178-.2723-.10162-.5627-.14539-.8528-.12853-.5206-.0303-1.0357.12096-1.4576.42806-.196.15139-.3521.34846-.4548.57407s-.1489.47294-.1344.72047c-.0105.21303.0247.42584.1032.62411.0784.19828.1983.37744.3516.52545.3625.3178.784.56066 1.2405.71459.5238.19332 1.1234.40044 1.7987.62138.6789.23173 1.3362.52283 1.9641.86993.5754.31541 1.0652.76693 1.4266 1.31526.3818.63252.5688 1.36382.5376 2.10232.0041.7441-.1962 1.475-.5789 2.1127-.4134.6709-1.0081 1.2108-1.7152 1.5569-.8696.4195-1.8272.6232-2.792.5938zm8.5388-.2486 5.2927-14.498858h2.9772l5.2923 14.498858h-2.8113l-1.1578-3.3554h-5.6442l-1.1785 3.3554zm4.6725-5.4267h4.197l-2.1089-6.02739z" fill="#141414"/></svg>