<svg fill="none" height="22" viewBox="0 0 103 22" width="103" xmlns="http://www.w3.org/2000/svg"><g fill="#141414"><path d="m19.11 4.3382h-.046c-1.0673-.00545-2.1227.22407-3.0913.67227-.9686.44819-1.8267 1.10408-2.5134 1.92111-.6865-.81735-1.5445-1.47356-2.5132-1.92206-.9686-.4485-2.02407-.67829-3.09148-.67306h-.03468c-1.86619-.02275-3.66552.69404-5.00489 1.99376-1.33936 1.29972-2.109864 3.07672-2.143175 4.94278.033514 1.872.808885 3.6542 2.155715 4.9548 1.34684 1.3007 3.15495 2.0134 5.02703 1.9817.55128.0005 1.10091-.0603 1.63875-.1813.04335-.0095.0867-.0251.12832-.0355.2133-.052.42491-.1093.62951-.1795.124-.0425.2428-.0962.3641-.1457.1214-.0494.2402-.0867.3564-.1456.1968-.0919.3885-.1968.5766-.3061.0347-.0199.072-.0373.1058-.0572.6837-.4136 1.2943-.9374 1.8069-1.5503.5131.6125 1.1236 1.1363 1.807 1.5503.0347.0199.0711.0373.1058.0572.1881.1093.3798.2142.5766.3061.1162.0546.2376.098.3572.1456.1197.0477.2393.1032.3633.1457.2055.0702.4162.1275.6304.1795.0425.0104.0867.026.1274.0355.5379.121 1.0875.1818 1.6388.1813 1.872.0317 3.6802-.681 5.027-1.9817 1.3468-1.3006 2.1222-3.0828 2.1557-4.9548-.0333-1.86454-.8028-3.64017-2.1405-4.93939s-3.1351-2.01655-4.9997-1.99541zm-.046 11.2718c-.6861.0058-1.365-.1401-1.9883-.4271-.6232-.2871-1.1753-.7082-1.6169-1.2333l-2.0012-2.4044-2.0003 2.4044c-.4418.5251-.9941.9461-1.61752 1.233-.62338.2869-1.30243.4325-1.98863.4265-1.18181.0304-2.32748-.4088-3.18618-1.2214-.8587-.8125-1.36044-1.9322-1.39538-3.1139.03471-1.1817.53639-2.30155 1.39514-3.11415.85874-.81259 2.00455-1.2517 3.18642-1.22113.68613-.00609 1.36514.13943 1.98851.42616.62334.28673 1.17574.70759 1.61764 1.23253l2.0003 2.40439 2.0012-2.40439c.4417-.52498.9938-.94594 1.6171-1.23282.6232-.28688 1.3021-.4326 1.9881-.42674 1.1819-.03057 2.3277.40854 3.1864 1.22114.8588.81259 1.3605 1.93241 1.3952 3.11421-.0347 1.1818-.5364 2.3017-1.3951 3.1144-.8587.8128-2.0045 1.2521-3.1865 1.2217z" opacity=".5"/><path d="m34.4355 21.7021v-16.43433h2.8327v1.9665c.395-.65958.9558-1.20423 1.6266-1.57979.7188-.42717 1.5406-.64965 2.3767-.64336.7328-.02068 1.4613.11828 2.1351.40724.6737.28897 1.2765.72102 1.7666 1.26619 1.0758 1.26543 1.6248 2.89544 1.5339 4.55385v.1872c.0878 1.6724-.4525 3.3173-1.5148 4.612-.486.5576-1.0899 1.0001-1.7681 1.2955-.6781.2955-1.4134.4364-2.1527.4126-.8499.0174-1.6895-.1886-2.4347-.5974-.6622-.3585-1.2068-.9004-1.5686-1.5608v6.1146zm6.1336-6.2039c.4527.0277.9056-.0511 1.3224-.2299.4168-.1789.7859-.4529 1.0777-.8001.6101-.8751.9032-1.9323.8306-2.9966v-.1873c.0732-1.0787-.2472-2.1473-.9017-3.00782-.2888-.33918-.6504-.60888-1.0578-.78902s-.8502-.26609-1.2954-.25146c-.4594-.01808-.9171.06585-1.3402.24576-.4231.1799-.801.45131-1.1067.79472-.6696.85382-.9994 1.92522-.926 3.00782v.1873c-.0769 1.0787.2449 2.1481.9043 3.0052.3145.3436.701.6134 1.132.79s.8957.2556 1.3608.2314zm8.6854 2.0134v-12.24383h2.831v2.29425c.3385-.76464.8989-1.40999 1.6085-1.85244s1.5357-.66161 2.3713-.62909v2.6454c-1.0548-.06219-2.1015.2169-2.9853.79597-.3588.32919-.6356.73775-.8083 1.19303-.1727.45531-.2365.94461-.1862 1.42901v6.3677zm9.3643 0v-12.24383h2.8309v12.24383zm2.5752-14.72536c-.1583.15299-.3453.27313-.5502.35349s-.4237.11935-.6438.11472c-.22.00463-.4389-.03436-.6438-.11472s-.3919-.2005-.5501-.35349c-.1584-.14563-.284-.32315-.3688-.52087-.0847-.19773-.1266-.41117-.1229-.62625-.0053-.21877.0357-.43618.1205-.63794.0847-.201752.2112-.383269.3712-.532599.1582-.152988.3452-.273128.5501-.353489.2049-.0803608.4238-.11935133.6438-.11472339.2201-.00462794.4389.03436259.6438.11472339.2049.080361.3919.200501.5502.353489.1599.14933.2864.330847.3712.532599.0847.20176.1257.41917.1204.63794.0037.21508-.0382.42852-.1229.62625-.0847.19772-.2104.37524-.3687.52087zm7.8859 14.95946c-1.3155.0768-2.6182-.2946-3.6954-1.0535-.4465-.3612-.8064-.8177-1.0535-1.336-.2471-.5184-.3751-1.0855-.3746-1.6597h2.6688c.0328.5593.2752 1.0856.679 1.474.5075.3687 1.1305.5431 1.7558.4916 1.467 0 2.2006-.5228 2.2006-1.5685.0106-.2191-.0395-.4369-.1447-.6294-.1053-.1924-.2617-.3521-.4519-.4614-.635-.3158-1.3206-.5177-2.0254-.5965-1.229-.1125-2.4111-.5268-3.4414-1.2061-.3447-.3164-.6125-.7075-.783-1.1433-.1704-.43582-.2389-.90482-.2003-1.37117-.0203-.52898.0936-1.0545.331-1.52764.2374-.47315.5906-.87855 1.0269-1.17846.9457-.66007 2.0777-1.00035 3.2306-.97111 2.9342 0 4.5339 1.23296 4.7992 3.69889h-2.622c-.0796-.48177-.3249-.92062-.6936-1.24077-.4373-.29499-.9608-.4351-1.487-.39798-.5071-.02975-1.0095.11028-1.4281.39798-.1644.12104-.2972.28007-.3868.46351-.0897.18344-.1337.38586-.1282.58997-.0093.19755.0361.39383.131.56729.095.17345.236.31738.4074.41596.627.3023 1.2992.50003 1.9899.58523 1.2321.1252 2.4223.5166 3.4882 1.1472.3865.3068.6897.7057.882 1.1602.1922.4545.2673.9499.2183 1.441.0311.5485-.0679 1.0966-.289 1.5996-.221.503-.5578.9466-.983 1.2946-1.0564.7402-2.3336 1.0981-3.6208 1.0145zm11.5449-.0234c-.4978.0346-.9975-.0304-1.4699-.1912s-.9079-.4141-1.2813-.7453c-.3317-.3605-.5868-.7846-.7497-1.2467-.1629-.462-.2302-.9523-.198-1.4412v-6.69542h-1.6387v-2.13037h1.6387v-2.6879h2.8327v2.6879h2.6879v2.13037h-2.6879v6.43792c0 1.0457.4682 1.5685 1.4047 1.5685.4713.0133.9406-.0663 1.3812-.2341v2.2431c-.6168.2145-1.2668.3176-1.9197.3044zm4.5417-.2107v-12.24383h2.8327v12.24383zm2.5752-14.72536c-.1583.15299-.3453.27313-.5502.35349s-.4237.11935-.6438.11472c-.22.00463-.4388-.03436-.6438-.11472-.2049-.08036-.3919-.2005-.5501-.35349-.1583-.14563-.284-.32315-.3688-.52087-.0847-.19773-.1266-.41117-.1228-.62625-.0054-.21877.0356-.43618.1204-.63794.0847-.201752.2112-.383269.3712-.532599.1582-.152988.3452-.273128.5501-.353489.205-.0803608.4238-.11935133.6438-.11472339.2201-.00462794.4389.03436259.6438.11472339.2049.080361.3919.200501.5502.353489.1599.14933.2864.330847.3712.532599.0847.20176.1258.41917.1204.63794.0037.21508-.0381.42852-.1229.62625-.0847.19772-.2104.37524-.3687.52087zm3.6989 14.72536v-12.24383h2.8327v1.94309c.3336-.66173.8547-1.21057 1.4982-1.57805.7467-.42906 1.5973-.64359 2.4582-.61995.5655-.0296 1.1309.06036 1.6593.26399.528.20363 1.008.51637 1.407.91781.828 1.01558 1.232 2.31141 1.128 3.61739v7.69955h-2.8365v-7.4446c.0596-.72759-.1485-1.45188-.5853-2.03677-.2432-.23547-.5343-.41587-.8534-.52897s-.6588-.15625-.996-.12653c-.7637-.02943-1.5082.24385-2.0714.76042-.2798.28404-.4963.62397-.6356.99751-.1393.37355-.1981.7723-.1725 1.17014v7.2088z"/></g></svg>